<svg width="86" height="86" viewBox="0 0 86 86" fill="none" xmlns="http://www.w3.org/2000/svg">
<g clip-path="url(#clip0_1_94)">
<rect width="86" height="86" fill="#D9D9D9"/>
<rect width="86" height="86" fill="url(#paint0_linear_1_94)"/>
<path d="M54.1534 72.9998H80.8871C82.0229 72.9998 82.9436 72.0791 82.9436 70.9433V59.6329C82.9436 58.4972 82.0229 57.5765 80.8871 57.5765H54.1534C53.0177 57.5765 52.097 58.4972 52.097 59.6329V70.9433C52.097 72.0791 53.0177 72.9998 54.1534 72.9998Z" fill="#2D8955"/>
<path d="M3.77073 22.6171H30.5044C31.6402 22.6171 32.5609 21.6964 32.5609 20.5606V9.25022C32.5609 8.11448 31.6402 7.19378 30.5044 7.19378H3.77073C2.63499 7.19378 1.71429 8.11448 1.71429 9.25022V20.5606C1.71429 21.6964 2.63499 22.6171 3.77073 22.6171Z" fill="#916ED8"/>
<path d="M85 35.9839V-6.17305C85 -7.30879 84.0793 -8.22949 82.9436 -8.22949H71.6332C70.4974 -8.22949 69.5767 -7.30879 69.5767 -6.17305V35.9839C69.5767 37.1197 70.4974 38.0404 71.6332 38.0404H82.9436C84.0793 38.0404 85 37.1197 85 35.9839Z" fill="#37BA70"/>
<path d="M36.6737 90.4795H78.8307C79.9664 90.4795 80.8871 89.5588 80.8871 88.4231V77.1127C80.8871 75.9769 79.9664 75.0562 78.8307 75.0562H36.6737C35.538 75.0562 34.6173 75.9769 34.6173 77.1127V88.4231C34.6173 89.5588 35.538 90.4795 36.6737 90.4795Z" fill="#5B5CC3"/>
<path d="M-11.6526 72.9998H30.5044C31.6402 72.9998 32.5609 72.0791 32.5609 70.9433V59.6329C32.5609 58.4972 31.6402 57.5765 30.5044 57.5765H-11.6526C-12.7883 57.5765 -13.709 58.4972 -13.709 59.6329V70.9433C-13.709 72.0791 -12.7883 72.9998 -11.6526 72.9998Z" fill="#E5B300"/>
<path d="M1.71431 26.7299L1.71431 53.4636C1.71431 54.5994 2.63501 55.5201 3.77075 55.5201H15.0812C16.2169 55.5201 17.1376 54.5994 17.1376 53.4636V26.7299C17.1376 25.5942 16.2169 24.6735 15.0812 24.6735H3.77075C2.63501 24.6735 1.71431 25.5942 1.71431 26.7299Z" fill="#88AA00"/>
<path d="M52.097 -6.17306V20.5606C52.097 21.6964 53.0177 22.6171 54.1535 22.6171H65.4639C66.5996 22.6171 67.5203 21.6964 67.5203 20.5606V-6.17306C67.5203 -7.3088 66.5996 -8.2295 65.4639 -8.2295H54.1535C53.0177 -8.2295 52.097 -7.3088 52.097 -6.17306Z" fill="#EDBF0F"/>
<path d="M34.6183 44.2086V70.9423C34.6183 72.0781 35.539 72.9988 36.6748 72.9988H47.9852C49.1209 72.9988 50.0416 72.0781 50.0416 70.9423V44.2086C50.0416 43.0729 49.1209 42.1522 47.9852 42.1522H36.6748C35.539 42.1522 34.6183 43.0729 34.6183 44.2086Z" fill="#A598C1"/>
<path d="M21.2515 40.0958H47.9852C49.1209 40.0958 50.0416 39.1751 50.0416 38.0393V26.7289C50.0416 25.5932 49.1209 24.6725 47.9852 24.6725H21.2515C20.1157 24.6725 19.195 25.5932 19.195 26.7289V38.0393C19.195 39.1751 20.1157 40.0958 21.2515 40.0958Z" fill="#D63933"/>
</g>
<defs>
<linearGradient id="paint0_linear_1_94" x1="12.5939" y1="73.4061" x2="73.4051" y2="12.5949" gradientUnits="userSpaceOnUse">
<stop stop-color="#191B3F"/>
<stop offset="1" stop-color="#294077"/>
</linearGradient>
<clipPath id="clip0_1_94">
<rect width="86" height="86" fill="white"/>
</clipPath>
</defs>
</svg>
